<svg version="1.1" id="Layer_1" xmlns="http://www.w3.org/2000/svg" xmlns:xlink="http://www.w3.org/1999/xlink" x="0px" y="0px"
	 width="100%" viewBox="0 0 378 378" enable-background="new 0 0 378 378" xml:space="preserve">
<path fill="#FFCB00" opacity="1.000000" stroke="none" 
	d="
M1.000000,200.000000 
	C1.000000,193.645599 1.000000,187.291214 1.380574,180.264893 
	C3.405511,167.948715 4.343326,156.150436 6.841035,144.692215 
	C12.072504,120.692863 22.508968,98.929893 36.947250,79.019341 
	C48.445599,63.163002 61.929314,49.336811 77.730095,37.808998 
	C103.748390,18.826780 132.502106,6.589943 164.692749,2.923584 
	C168.485657,2.491588 172.232040,1.651117 176.000000,1.000000 
	C185.354233,1.000000 194.708450,1.000000 204.730621,1.377998 
	C214.418671,3.092548 223.513107,4.057194 232.443710,5.841750 
	C252.068924,9.763345 270.232056,17.526608 287.389252,27.754368 
	C300.943481,35.834332 313.471252,45.182518 323.803162,57.103207 
	C311.298401,69.595642 299.088379,81.918983 286.532837,94.177185 
	C284.654816,95.263535 282.949341,96.243721 281.614868,97.591324 
	C238.947311,140.679337 196.321320,183.808517 153.652496,226.895279 
	C152.303238,228.257767 150.568283,229.238312 148.811630,230.105682 
	C138.184692,219.525665 127.809761,209.184555 117.267189,199.017258 
	C116.008827,197.803665 113.838455,196.926956 112.089134,196.924118 
	C91.613960,196.890869 71.138275,197.031387 50.663258,197.193726 
	C47.793983,197.216461 44.927582,197.601776 41.284981,197.878021 
	C42.914555,199.621841 43.884033,200.727493 44.924252,201.761993 
	C56.255661,213.031113 67.566818,224.320877 78.946625,235.540985 
	C89.965683,246.405441 101.058495,257.195099 112.141121,268.240479 
	C112.163322,268.463409 112.250084,268.902954 111.941887,269.066071 
	C99.160301,281.581024 86.651039,293.896973 74.229294,306.300507 
	C68.376205,312.145020 62.691128,318.157776 56.622780,323.954956 
	C54.520744,321.691772 52.840027,319.457703 50.912731,317.461700 
	C36.683376,302.724884 26.046604,285.607513 17.575129,267.082520 
	C9.958329,250.426483 5.096765,232.976425 2.982752,214.766418 
	C2.410147,209.834030 1.665618,204.921600 1.000000,200.000000 
z"/>
<path fill="#FFB000" opacity="1.000000" stroke="none" 
	d="
M286.878357,94.242340 
	C299.088379,81.918983 311.298401,69.595642 324.108215,57.240952 
	C334.944092,67.242081 343.724579,78.434288 351.152588,90.676170 
	C364.654968,112.928947 373.614838,136.823013 377.023193,162.713440 
	C377.564362,166.824463 378.335297,170.905243 379.000000,175.000000 
	C379.000000,184.687561 379.000000,194.375122 378.621948,204.725098 
	C377.315918,221.125702 374.676178,236.644012 368.833679,251.234085 
	C363.529022,264.481140 357.336060,277.480194 350.340912,289.917084 
	C340.079071,308.161865 325.927856,323.440918 309.703064,336.540283 
	C296.113312,347.512177 281.353821,356.807159 265.065247,363.504211 
	C248.871750,370.162170 232.315369,375.293030 214.807617,377.028992 
	C209.855286,377.520050 204.934998,378.334076 200.000000,379.000000 
	C193.645599,379.000000 187.291214,379.000000 180.267517,378.617645 
	C167.948212,376.587830 156.194458,375.462982 144.671448,373.175690 
	C125.286674,369.327911 107.329735,361.253174 90.849983,350.698486 
	C78.804581,342.983826 68.185036,333.042877 56.929916,324.094299 
	C62.691128,318.157776 68.376205,312.145020 74.229294,306.300507 
	C86.651039,293.896973 99.160301,281.581024 112.226639,269.224762 
	C125.828461,282.035889 138.837326,294.851471 152.081985,307.899323 
	C209.947418,249.252228 267.420288,191.003021 325.408386,132.231598 
	C312.432526,119.437874 299.655426,106.840118 286.878357,94.242340 
z"/>
<path fill="#FFFFFF" opacity="0" stroke="none" 
	d="
M56.622772,323.954956 
	C68.185036,333.042877 78.804581,342.983826 90.849983,350.698486 
	C107.329735,361.253174 125.286674,369.327911 144.671448,373.175690 
	C156.194458,375.462982 167.948212,376.587830 179.799103,378.617645 
	C120.406311,379.000000 60.812622,379.000000 1.000000,379.000000 
	C1.000000,319.645966 1.000000,260.291626 1.000000,200.468658 
	C1.665618,204.921600 2.410147,209.834030 2.982752,214.766418 
	C5.096765,232.976425 9.958329,250.426483 17.575129,267.082520 
	C26.046604,285.607513 36.683376,302.724884 50.912731,317.461700 
	C52.840027,319.457703 54.520744,321.691772 56.622772,323.954956 
z"/>
<path fill="#FFFFFF" opacity="0" stroke="none" 
	d="
M175.531342,1.000000 
	C172.232040,1.651117 168.485657,2.491588 164.692749,2.923584 
	C132.502106,6.589943 103.748390,18.826780 77.730095,37.808998 
	C61.929314,49.336811 48.445599,63.163002 36.947250,79.019341 
	C22.508968,98.929893 12.072504,120.692863 6.841035,144.692215 
	C4.343326,156.150436 3.405511,167.948715 1.380574,179.796478 
	C1.000000,120.407135 1.000000,60.814270 1.000000,1.000000 
	C59.020706,1.000000 117.041695,1.000000 175.531342,1.000000 
z"/>
<path fill="#FFFFFF" opacity="0" stroke="none" 
	d="
M200.468658,379.000000 
	C204.934998,378.334076 209.855286,377.520050 214.807617,377.028992 
	C232.315369,375.293030 248.871750,370.162170 265.065247,363.504211 
	C281.353821,356.807159 296.113312,347.512177 309.703064,336.540283 
	C325.927856,323.440918 340.079071,308.161865 350.340912,289.917084 
	C357.336060,277.480194 363.529022,264.481140 368.833679,251.234085 
	C374.676178,236.644012 377.315918,221.125702 378.621948,205.193756 
	C379.000000,262.928070 379.000000,320.856110 379.000000,379.000000 
	C319.645935,379.000000 260.291626,379.000000 200.468658,379.000000 
z"/>
<path fill="#FFFFFF" opacity="0" stroke="none" 
	d="
M379.000000,174.531342 
	C378.335297,170.905243 377.564362,166.824463 377.023193,162.713440 
	C373.614838,136.823013 364.654968,112.928947 351.152588,90.676170 
	C343.724579,78.434288 334.944092,67.242081 324.402985,57.071861 
	C313.471252,45.182518 300.943481,35.834332 287.389252,27.754368 
	C270.232056,17.526608 252.068924,9.763345 232.443710,5.841750 
	C223.513107,4.057194 214.418671,3.092548 205.199280,1.377998 
	C262.927002,1.000000 320.854034,1.000000 379.000000,1.000000 
	C379.000000,58.687378 379.000000,116.375031 379.000000,174.531342 
z"/>
<path fill="#E6E7E7" opacity="0" stroke="none" 
	d="
M286.532837,94.177200 
	C299.655426,106.840118 312.432526,119.437874 325.408386,132.231598 
	C267.420288,191.003021 209.947418,249.252228 152.081985,307.899323 
	C138.837326,294.851471 125.828461,282.035889 112.534836,269.061646 
	C112.250084,268.902954 112.163322,268.463409 112.465240,268.157562 
	C113.468254,267.421539 114.294693,267.113739 114.851967,266.543121 
	C125.885010,255.245255 136.894409,243.924225 147.872757,232.573227 
	C148.418976,232.008438 148.640442,231.129547 149.013123,230.396912 
	C150.568283,229.238312 152.303238,228.257767 153.652496,226.895279 
	C196.321320,183.808517 238.947311,140.679337 281.614868,97.591324 
	C282.949341,96.243721 284.654816,95.263535 286.532837,94.177200 
z"/>
<path fill="#FFFFFE" opacity="0" stroke="none" 
	d="
M148.811615,230.105667 
	C148.640442,231.129547 148.418976,232.008438 147.872757,232.573227 
	C136.894409,243.924225 125.885010,255.245255 114.851967,266.543121 
	C114.294693,267.113739 113.468254,267.421539 112.443039,267.934631 
	C101.058495,257.195099 89.965683,246.405441 78.946625,235.540985 
	C67.566818,224.320877 56.255661,213.031113 44.924252,201.761993 
	C43.884033,200.727493 42.914555,199.621841 41.284981,197.878021 
	C44.927582,197.601776 47.793983,197.216461 50.663258,197.193726 
	C71.138275,197.031387 91.613960,196.890869 112.089134,196.924118 
	C113.838455,196.926956 116.008827,197.803665 117.267189,199.017258 
	C127.809761,209.184555 138.184692,219.525665 148.811615,230.105667 
z"/>
</svg>