<svg version="1.1" id="Layer_1" xmlns="http://www.w3.org/2000/svg" xmlns:xlink="http://www.w3.org/1999/xlink" x="0px" y="0px"
	 width="100%" viewBox="0 0 601 601" enable-background="new 0 0 601 601" xml:space="preserve">
<path fill="#FDB924" opacity="1.000000" stroke="none" 
	d="
M334.000000,602.000000 
	C222.666672,602.000000 111.833336,602.000000 1.000000,602.000000 
	C1.000000,401.666656 1.000000,201.333328 1.000000,1.000000 
	C201.333328,1.000000 401.666656,1.000000 602.000000,1.000000 
	C602.000000,201.333328 602.000000,401.666656 602.000000,602.000000 
	C512.833313,602.000000 423.666656,602.000000 334.000000,602.000000 
M269.500122,296.435272 
	C260.884094,296.435272 252.268082,296.435272 243.457275,296.435272 
	C243.457275,305.159241 243.457275,313.217407 243.457275,321.564545 
	C327.096771,321.564545 410.420837,321.564545 493.937927,321.564545 
	C493.937927,313.178802 493.937927,305.087952 493.937927,296.435699 
	C419.279663,296.435699 344.889923,296.435699 269.500122,296.435272 
M493.924652,184.807861 
	C492.177795,184.538574 490.431061,184.034592 488.684052,184.033752 
	C408.741669,183.994873 328.799255,183.999985 248.856827,183.999969 
	C247.095795,183.999969 245.334778,183.999969 243.577484,183.999969 
	C243.577484,192.753159 243.577484,200.796432 243.577484,208.873947 
	C327.199921,208.873947 410.405396,208.873947 494.111176,208.873947 
	C494.111176,200.977798 494.111176,193.364243 493.924652,184.807861 
M406.500031,408.834259 
	C352.255859,408.834259 298.011719,408.834259 243.478760,408.834259 
	C243.478760,417.443268 243.478760,425.491028 243.478760,433.662872 
	C327.126160,433.662872 410.455200,433.662872 493.767456,433.662872 
	C493.767456,425.267975 493.767456,417.216003 493.767456,408.834198 
	C464.747070,408.834198 436.123566,408.834198 406.500031,408.834259 
M109.218109,297.884857 
	C108.808693,301.846771 107.977577,305.817719 108.062340,309.769043 
	C108.444038,327.562561 116.773033,340.787079 132.659866,348.450470 
	C148.739334,356.206726 164.614105,354.506073 178.702179,343.467377 
	C192.818680,332.406342 198.001709,317.373383 194.460205,299.888855 
	C190.435883,280.020660 173.709839,266.260986 153.366455,265.164062 
	C133.699844,264.103607 116.084602,276.924133 109.218109,297.884857 
M194.674377,431.057678 
	C194.829117,426.419678 195.491776,421.733154 195.053986,417.151764 
	C192.678955,392.297028 169.565414,375.133148 144.066956,379.044312 
	C120.663094,382.634186 104.036591,406.418701 108.532669,429.876770 
	C112.454071,450.336517 129.428467,465.335938 149.414368,466.001892 
	C171.325989,466.731995 188.993347,453.333008 194.674377,431.057678 
M137.002869,204.525131 
	C140.339859,208.889648 143.723358,213.219574 147.001709,217.627686 
	C150.811920,222.751022 152.386566,222.372681 155.925217,216.919830 
	C164.969025,202.983856 173.261200,188.334229 183.964203,175.767242 
	C193.788788,164.231689 206.432281,155.111740 217.663055,144.742569 
	C219.279999,143.249664 219.939453,140.719772 221.042023,138.669769 
	C218.527588,137.849640 215.662262,135.832123 213.568008,136.445816 
	C208.385971,137.964401 202.929657,139.861740 198.699417,143.075623 
	C184.001862,154.241974 169.484894,165.692963 155.527451,177.762207 
	C150.312973,182.271286 146.353378,183.638763 139.810516,180.764221 
	C133.530472,178.005127 126.468925,176.789856 119.622643,175.704926 
	C117.693962,175.399292 115.314499,177.938263 113.141792,179.172516 
	C114.216431,181.013290 114.961349,183.185806 116.422325,184.637878 
	C123.020691,191.196136 129.821701,197.550507 137.002869,204.525131 
M185.057938,224.542206 
	C197.186523,209.317459 199.260269,185.030701 189.094177,174.776443 
	C187.559921,176.529892 186.145004,178.381714 184.491180,179.987473 
	C181.193298,183.189545 180.110977,186.455643 180.975189,191.408997 
	C184.006577,208.783768 171.544617,224.180725 153.869736,225.811890 
	C137.464386,227.325912 122.838608,214.243912 121.821960,197.222260 
	C121.737541,195.808731 121.594887,193.936707 120.705620,193.114883 
	C117.247299,189.918869 113.476692,187.060791 109.511147,183.822891 
	C107.167381,192.474976 107.214561,200.363220 109.519310,208.193741 
	C119.335052,241.543259 161.630112,250.858246 185.057938,224.542206 
M156.145187,152.166275 
	C138.264801,151.256805 119.654594,160.396011 116.085228,171.534317 
	C119.792107,171.968063 123.563065,172.674957 127.347412,172.755905 
	C129.749878,172.807312 132.559433,172.557343 134.516602,171.353531 
	C141.795395,166.876541 149.360718,164.864868 157.859344,166.661896 
	C159.326263,166.972076 161.380096,166.916031 162.480225,166.104187 
	C165.914673,163.569748 169.021912,160.591858 173.414337,156.780899 
	C167.156967,155.054657 162.101212,153.659912 156.145187,152.166275 
z"/>
<path fill="#FFFDF9" opacity="1.000000" stroke="none" 
	d="
M270.000122,296.435486 
	C344.889923,296.435699 419.279663,296.435699 493.937927,296.435699 
	C493.937927,305.087952 493.937927,313.178802 493.937927,321.564545 
	C410.420837,321.564545 327.096771,321.564545 243.457275,321.564545 
	C243.457275,313.217407 243.457275,305.159241 243.457275,296.435272 
	C252.268082,296.435272 260.884094,296.435272 270.000122,296.435486 
z"/>
<path fill="#FFFFFF" opacity="1.000000" stroke="none" 
	d="
M494.017914,185.279282 
	C494.111176,193.364243 494.111176,200.977798 494.111176,208.873947 
	C410.405396,208.873947 327.199921,208.873947 243.577484,208.873947 
	C243.577484,200.796432 243.577484,192.753159 243.577484,183.999969 
	C245.334778,183.999969 247.095795,183.999969 248.856827,183.999969 
	C328.799255,183.999985 408.741669,183.994873 488.684052,184.033752 
	C490.431061,184.034592 492.177795,184.538574 494.017914,185.279282 
z"/>
<path fill="#FFFFFF" opacity="1.000000" stroke="none" 
	d="
M407.000061,408.834229 
	C436.123566,408.834198 464.747070,408.834198 493.767456,408.834198 
	C493.767456,417.216003 493.767456,425.267975 493.767456,433.662872 
	C410.455200,433.662872 327.126160,433.662872 243.478760,433.662872 
	C243.478760,425.491028 243.478760,417.443268 243.478760,408.834259 
	C298.011719,408.834259 352.255859,408.834259 407.000061,408.834229 
z"/>
<path fill="#FFFEFA" opacity="1.000000" stroke="none" 
	d="
M109.350616,297.493774 
	C116.084602,276.924133 133.699844,264.103607 153.366455,265.164062 
	C173.709839,266.260986 190.435883,280.020660 194.460205,299.888855 
	C198.001709,317.373383 192.818680,332.406342 178.702179,343.467377 
	C164.614105,354.506073 148.739334,356.206726 132.659866,348.450470 
	C116.773033,340.787079 108.444038,327.562561 108.062340,309.769043 
	C107.977577,305.817719 108.808693,301.846771 109.350616,297.493774 
M150.633041,338.997559 
	C168.113373,338.897003 181.559753,326.119232 181.813309,309.367737 
	C182.049774,293.745453 169.010406,279.920502 153.196030,279.026306 
	C137.628403,278.146057 122.970467,290.716095 121.916901,305.849976 
	C120.678535,323.638275 132.110275,337.251801 150.633041,338.997559 
z"/>
<path fill="#FFFEFB" opacity="1.000000" stroke="none" 
	d="
M194.553741,431.458557 
	C188.993347,453.333008 171.325989,466.731995 149.414368,466.001892 
	C129.428467,465.335938 112.454071,450.336517 108.532669,429.876770 
	C104.036591,406.418701 120.663094,382.634186 144.066956,379.044312 
	C169.565414,375.133148 192.678955,392.297028 195.053986,417.151764 
	C195.491776,421.733154 194.829117,426.419678 194.553741,431.458557 
M155.994339,451.947388 
	C157.288086,451.648712 158.612061,451.443542 159.870911,451.036865 
	C172.304901,447.020142 179.788483,438.556946 181.379028,425.603149 
	C182.872055,413.443573 178.028946,403.681427 167.798141,397.091461 
	C157.156952,390.237091 146.075348,390.370026 135.385162,397.163086 
	C123.933090,404.440247 119.009872,418.449188 123.054306,431.209198 
	C127.390938,444.891052 139.409912,452.692169 155.994339,451.947388 
z"/>
<path fill="#FFFEFC" opacity="1.000000" stroke="none" 
	d="
M136.776276,204.251740 
	C129.821701,197.550507 123.020691,191.196136 116.422325,184.637878 
	C114.961349,183.185806 114.216431,181.013290 113.141800,179.172516 
	C115.314499,177.938263 117.693962,175.399292 119.622643,175.704926 
	C126.468925,176.789856 133.530472,178.005127 139.810516,180.764221 
	C146.353378,183.638763 150.312973,182.271286 155.527451,177.762207 
	C169.484894,165.692963 184.001862,154.241974 198.699417,143.075623 
	C202.929657,139.861740 208.385971,137.964401 213.568008,136.445816 
	C215.662262,135.832123 218.527588,137.849640 221.042023,138.669769 
	C219.939453,140.719772 219.279999,143.249664 217.663055,144.742569 
	C206.432281,155.111740 193.788788,164.231689 183.964203,175.767242 
	C173.261200,188.334229 164.969025,202.983856 155.925217,216.919830 
	C152.386566,222.372681 150.811920,222.751022 147.001709,217.627686 
	C143.723358,213.219574 140.339859,208.889648 136.776276,204.251740 
z"/>
<path fill="#FFFDFA" opacity="1.000000" stroke="none" 
	d="
M184.813293,224.797943 
	C161.630112,250.858246 119.335052,241.543259 109.519310,208.193741 
	C107.214561,200.363220 107.167381,192.474976 109.511147,183.822891 
	C113.476692,187.060791 117.247299,189.918869 120.705620,193.114883 
	C121.594887,193.936707 121.737541,195.808731 121.821960,197.222260 
	C122.838608,214.243912 137.464386,227.325912 153.869736,225.811890 
	C171.544617,224.180725 184.006577,208.783768 180.975189,191.408997 
	C180.110977,186.455643 181.193298,183.189545 184.491180,179.987473 
	C186.145004,178.381714 187.559921,176.529892 189.094177,174.776443 
	C199.260269,185.030701 197.186523,209.317459 184.813293,224.797943 
z"/>
<path fill="#FFFDFA" opacity="1.000000" stroke="none" 
	d="
M156.595337,152.215729 
	C162.101212,153.659912 167.156967,155.054657 173.414337,156.780899 
	C169.021912,160.591858 165.914673,163.569748 162.480225,166.104187 
	C161.380096,166.916031 159.326263,166.972076 157.859344,166.661896 
	C149.360718,164.864868 141.795395,166.876541 134.516602,171.353531 
	C132.559433,172.557343 129.749878,172.807312 127.347412,172.755905 
	C123.563065,172.674957 119.792107,171.968063 116.085228,171.534317 
	C119.654594,160.396011 138.264801,151.256805 156.595337,152.215729 
z"/>
<path fill="#FDB925" opacity="1.000000" stroke="none" 
	d="
M150.189377,338.993774 
	C132.110275,337.251801 120.678535,323.638275 121.916901,305.849976 
	C122.970467,290.716095 137.628403,278.146057 153.196030,279.026306 
	C169.010406,279.920502 182.049774,293.745453 181.813309,309.367737 
	C181.559753,326.119232 168.113373,338.897003 150.189377,338.993774 
z"/>
<path fill="#FDB925" opacity="1.000000" stroke="none" 
	d="
M155.552887,451.981934 
	C139.409912,452.692169 127.390938,444.891052 123.054306,431.209198 
	C119.009872,418.449188 123.933090,404.440247 135.385162,397.163086 
	C146.075348,390.370026 157.156952,390.237091 167.798141,397.091461 
	C178.028946,403.681427 182.872055,413.443573 181.379028,425.603149 
	C179.788483,438.556946 172.304901,447.020142 159.870911,451.036865 
	C158.612061,451.443542 157.288086,451.648712 155.552887,451.981934 
z"/>
</svg>